# xmcd CD database file
#
# Track frame offsets:
#	150
#	23560
#	40760
#	64137
#	89472
#	107835
#	129635
#	150615
#	170402
#	187340
#	205815
#	229055
#	249880
#	277330
#	305005
#
# Disc length: 4407 seconds
#
# Revision: 0
# Processed by: cddbd v1.5.1PL0 Copyright (c) Steve Scherf et al.
# Submitted via: CDex 1.51
#
DISCID=d311350f
DTITLE=Asuka - initial A
DYEAR=2005
DGENRE=JPop
TTITLE0=Sexi Sexi
TTITLE1=X-MAN 2 -Saturday NightヤバFever-
TTITLE2=OH...What a night
TTITLE3=LOVE again -200% mix feat. TYPE-Lo
TTITLE4=A Song 4U
TTITLE5=話をしようよ
TTITLE6=名前呼んで　I　で叫んで
TTITLE7=initial A
TTITLE8=EXCUSE ME
TTITLE9=7days
TTITLE10=(Another 3 months)without u
TTITLE11=Breathe into the rhythm
TTITLE12=me and my girlfriend-home girls remix feat. Black Fly
TTITLE13=NEVER SURRENDER-信じる力-
TTITLE14=Missing
EXTD=YEAR: 2005
EXTT0=
EXTT1=
EXTT2=
EXTT3=
EXTT4=
EXTT5=
EXTT6=
EXTT7=
EXTT8=
EXTT9=
EXTT10=
EXTT11=
EXTT12=
EXTT13=
EXTT14=
PLAYORDER=
